# xmcd
#
# Track frame offsets: 
#        150
#        12627
#        24799
#        36977
#        47147
#        57988
#        68763
#        80009
#        91466
#        103907
#        116261
#        126299
#        136139
#        146447
#        156290
#        166170
#        179015
#        192943
#        203112
#        214669
#        223135
#        235689
#        247242
#        258627
#        270336
#        281550
#        292769
#        304087
#        317472
#        328710
#        339976
#
# Disc length: 4679 seconds
#
# Revision: 0
# Processed by: cddbd v1.5.1PL2 Copyright (c) Steve Scherf et al.
# Submitted via: ExactAudioCopy v0.95b3
#
DISCID=cd12451f
DTITLE=Various Artist - Double Cookin' (For Richard Benn - 31st July, 2003) [
DTITLE=A Tim Allon Compilation]
DYEAR=1900
DGENRE=A Cappella
TTITLE0=Tony and Tyrone/Please Operator
TTITLE1=The Flirtations/Nothing But a Heartache
TTITLE2=Dean Parrish/I'm on My Way
TTITLE3=Judy Street/What
TTITLE4=Sam Williams/Love Slipped Through My Fingers
TTITLE5=Richard 'Popcorn' Wylie/Rosemary What
TTITLE6=The Drifters/You've Got to Pay Your Dues
TTITLE7=Larry Laster/Go For Yourself
TTITLE8=The Packers/Hole in the Wall
TTITLE9=The Ambassadors/Good Love Gone Bad
TTITLE10=The Carlettes/Lost Without Your Love
TTITLE11=Archie Bell and The Drells/Here I Go Again
TTITLE12=Beverley Ann/You've Got Your Mind on Other Things
TTITLE13=Jimmy Wisner/Choppin' Around
TTITLE14=David and Ruben/I Love Her So Much it Hurts Me
TTITLE15=Gladys Knight and The Pips/Stop and Get a Hold of Myself
TTITLE16=The Dreamlovers featuring Russ Gardner/You Gave Me Somebody t
TTITLE16=o Love
TTITLE17=Johnny Maestro and The Crests/Stepping Out of the Picture
TTITLE18=Ike and Tina Turner/Somebody (Somewhere) Needs You
TTITLE19=Rubin/You've Been Away
TTITLE20=Bob Brady and The Con Chords/Everybody's Going to the Love-in
TTITLE21=Beau Dollar and The Coins/Soul Serenade
TTITLE22=The Spellbinders/Chain Reaction
TTITLE23=Homer Banks/A Lot of Love
TTITLE24=Frank Wilson/Do I Love You (Indeed I Do)
TTITLE25=The Checkerboard Squares/Double Cookin'
TTITLE26=David and The Giants/Ten Miles High
TTITLE27=The Astors/Candy
TTITLE28=Laura Greene/Moonlight, Music and You
TTITLE29=The Holidays/Easy Livin'
TTITLE30=Jimmy Radcliffe/Long After Tonite is All Over
EXTD=
EXTT0=
EXTT1=
EXTT2=
EXTT3=
EXTT4=
EXTT5=
EXTT6=
EXTT7=
EXTT8=
EXTT9=
EXTT10=
EXTT11=
EXTT12=
EXTT13=
EXTT14=
EXTT15=
EXTT16=
EXTT17=
EXTT18=
EXTT19=
EXTT20=
EXTT21=
EXTT22=
EXTT23=
EXTT24=
EXTT25=
EXTT26=
EXTT27=
EXTT28=
EXTT29=
EXTT30=
PLAYORDER=
